<svg id="Capa_1" enable-background="new 0 0 512 512" height="512" viewBox="0 0 512 512" width="512" xmlns="http://www.w3.org/2000/svg"><g><path d="m226 16c0-8.28-6.72-15-15-15h-150c-8.28 0-15 6.72-15 15v15h180z"/><path d="m46 496c0 8.28 6.72 15 15 15h150c8.28 0 15-6.72 15-15v-15h-180z"/><path d="m497 106h-196v300h135c8.28 0 15-6.72 15-15v-67.1c0-18.99 9.12-37.06 24.41-48.33 22.91-16.9 36.59-44 36.59-72.47v-82.1c0-8.28-6.72-15-15-15zm-135.95 270h-30.1v-30h30.1zm0-210h-30.1v-30h30.1zm59.95 210h-29.95v-30h29.95zm0-210h-29.95v-30h29.95zm61 0h-31v-30h31z"/><path d="m181 151h90v210h-90z"/><path d="m256 61h-241c-8.284 0-15 6.716-15 15v45h271v-45c0-8.284-6.716-15-15-15z"/><path d="m151 361v-210c-3.23 0-147.704 0-151 0v210z"/><path d="m0 391v45c0 8.284 6.716 15 15 15h241c8.284 0 15-6.716 15-15v-45c-6.407 0-262.738 0-271 0z"/></g></svg>